<?xml version="1.0" encoding="UTF-8"?>
<svg fill="none" viewBox="0 0 249 249" xmlns="http://www.w3.org/2000/svg">
<path d="m248 124.88c0 4.289-0.218 8.527-0.644 12.704v111.42h-246.73v-111.56c-0.4159-4.129-0.62891-8.317-0.62891-12.555s0.21301-8.427 0.62891-12.555v-110.7h110.77c4.145-0.41799 8.35-0.63209 12.604-0.63209 4.255 0 8.46 0.2141 12.605 0.63209h110.75v61.626h1e-3v48.922c0.426 4.177 0.644 8.415 0.644 12.704zm-2.144-60.126v37.068c-2.491-13.217-7.082-25.693-13.414-37.068h13.414zm0 47.5c-1.757-17.126-7.049-33.206-15.135-47.5h-44.199v59.494h59.334v-11.994zm-1e-3 -49.632h-14.628c-10.781-18.493-26.217-33.943-44.705-44.748v-14.746h59.333v59.494zm-16.368 0c-10.48-17.683-25.287-32.504-42.965-43.007v43.007h42.965zm-45.094-59.494v13.529c-11.458-6.396-24.037-11.028-37.368-13.529h37.368zm0 15.251c-14.391-8.1629-30.6-13.498-47.868-15.251h-11.465v59.494h59.333v-44.243zm-120.8-15.251h37.377c-13.334 2.5017-25.916 7.1357-37.377 13.534v-13.534zm47.877 0c-17.272 1.7527-33.484 7.09-47.877 15.256v44.238h59.334v-59.494h-11.457zm-50.013 0v14.755c-18.481 10.805-33.912 26.252-44.689 44.739h-14.644v-59.494h59.333zm0 16.496c-17.671 10.502-32.473 25.32-42.949 42.998h42.949v-42.998zm-59.333 45.13h13.429c-6.3452 11.398-10.942 23.901-13.429 37.148v-37.148zm0 61.626v10.978c1.7768 17.529 7.2564 33.965 15.645 48.516h43.688v-59.494h-59.333zm0 59.494v-38.016c2.5501 13.583 7.3192 26.385 13.917 38.016h-13.917zm0 2.132h15.155c10.752 18.103 25.988 33.236 44.178 43.871v15.623h-59.333v-59.494zm61.463 59.494v-14.406c12.956 7.234 27.344 12.213 42.633 14.406h-42.633zm0-16.128c17.536 9.95 37.77 15.701 59.333 15.887v-59.253h-59.333v43.366zm120.81 16.128h-42.618c15.283-2.192 29.666-7.168 42.618-14.398v14.398zm-59.334-0.241c21.564-0.183 41.798-5.932 59.334-15.878v-43.375h-59.334v59.253zm61.463 0.241v-15.614c18.198-10.636 33.439-25.772 44.194-43.88h15.14v59.494h-59.334zm0-17.356c17.388-10.33 31.999-24.838 42.445-42.138h-42.445v42.138zm0-44.27h43.703c8.366-14.51 13.838-30.895 15.631-48.368v-11.126h-59.334v59.494zm59.334-37.936c-2.554 13.554-7.317 26.328-13.902 37.936h13.902v-37.936zm-226.83 40.068c10.444 17.295 25.048 31.8 42.43 42.129v-42.129h-42.43zm-1.7541-123.25c-8.1091 14.335-13.408 30.466-15.15 47.648v11.846h59.333v-59.494h-44.184zm46.313 0h59.333v3.6209h-30.318v1e-4h-15.697v55.873h-13.318v-59.494zm13.318 61.626h-13.318v59.494h59.333v-59.494h-25.961v55.43h-20.054v-55.43zm20.054-2.132h25.961v-35.803h-25.961v35.803zm28.1-55.873h48.63v55.873h10.704v-59.494h-59.334v3.6209zm48.63 58.005h10.704v59.494h-59.334v-59.494h28.577v55.43h20.053v-55.43zm-20.053-2.132v-35.803h-28.577v35.803h28.577z" clip-rule="evenodd" fill="#fff" fill-rule="evenodd" opacity=".13"/>
</svg>
